<svg width="1920" height="781" viewBox="0 0 1920 781" fill="none" xmlns="http://www.w3.org/2000/svg">
<path d="M622.383 1L-341.991 779.999" stroke="#E9E9E9" stroke-opacity="0.6" stroke-width="2"/>
<path d="M659.898 1L-113.865 779.999" stroke="#E9E9E9" stroke-opacity="0.6" stroke-width="2"/>
<path d="M697.402 1L72.5895 779.999" stroke="#E9E9E9" stroke-opacity="0.6" stroke-width="2"/>
<path d="M734.926 1L232.212 779.999" stroke="#E9E9E9" stroke-opacity="0.6" stroke-width="2"/>
<path d="M772.438 1L373.796 779.999" stroke="#E9E9E9" stroke-opacity="0.6" stroke-width="2"/>
<path d="M809.953 1L503.009 779.999" stroke="#E9E9E9" stroke-opacity="0.6" stroke-width="2"/>
<path d="M847.465 1L623.707 780" stroke="#E9E9E9" stroke-opacity="0.6" stroke-width="2"/>
<path d="M884.98 1L738.71 780" stroke="#E9E9E9" stroke-opacity="0.6" stroke-width="2"/>
<path d="M922.492 1L850.195 780" stroke="#E9E9E9" stroke-opacity="0.6" stroke-width="2"/>
<path d="M960.008 1V780" stroke="#E9E9E9" stroke-opacity="0.6" stroke-width="2"/>
<path d="M997.523 1L1069.82 780" stroke="#E9E9E9" stroke-opacity="0.6" stroke-width="2"/>
<path d="M1035.04 1L1181.31 780" stroke="#E9E9E9" stroke-opacity="0.6" stroke-width="2"/>
<path d="M1072.55 1L1296.31 780" stroke="#E9E9E9" stroke-opacity="0.6" stroke-width="2"/>
<path d="M1110.06 1L1417.01 779.999" stroke="#E9E9E9" stroke-opacity="0.6" stroke-width="2"/>
<path d="M1147.58 1L1546.22 779.999" stroke="#E9E9E9" stroke-opacity="0.6" stroke-width="2"/>
<path d="M1185.09 1L1687.81 779.999" stroke="#E9E9E9" stroke-opacity="0.6" stroke-width="2"/>
<path d="M1222.61 1L1847.42 779.999" stroke="#E9E9E9" stroke-opacity="0.6" stroke-width="2"/>
<path d="M1260.12 1L2033.88 779.999" stroke="#E9E9E9" stroke-opacity="0.6" stroke-width="2"/>
<path d="M1297.64 1L2262.01 779.999" stroke="#E9E9E9" stroke-opacity="0.6" stroke-width="2"/>
<path d="M622.383 1H1297.64" stroke="#E9E9E9" stroke-opacity="0.6" stroke-width="2"/>
<path d="M622.383 1H1297.64" stroke="#E9E9E9" stroke-opacity="0.6" stroke-width="2"/>
<path d="M622.383 1H1297.64" stroke="#E9E9E9" stroke-opacity="0.6" stroke-width="2"/>
<path d="M622.383 1H1297.64" stroke="#E9E9E9" stroke-opacity="0.6" stroke-width="2"/>
<path d="M622.375 1.00098H1297.64" stroke="#E9E9E9" stroke-opacity="0.6" stroke-width="2"/>
<path d="M622.375 1.00391H1297.65" stroke="#E9E9E9" stroke-opacity="0.6" stroke-width="2"/>
<path d="M622.359 1.01465H1297.66" stroke="#E9E9E9" stroke-opacity="0.6" stroke-width="2"/>
<path d="M622.328 1.04004H1297.69" stroke="#E9E9E9" stroke-opacity="0.6" stroke-width="2"/>
<path d="M622.258 1.09521H1297.76" stroke="#E9E9E9" stroke-opacity="0.6" stroke-width="2"/>
<path d="M622.129 1.2041H1297.9" stroke="#E9E9E9" stroke-opacity="0.6" stroke-width="2"/>
<path d="M621.867 1.40527H1298.13" stroke="#E9E9E9" stroke-opacity="0.6" stroke-width="2"/>
<path d="M621.441 1.75342H1298.57" stroke="#E9E9E9" stroke-opacity="0.6" stroke-width="2"/>
<path d="M620.738 2.32666H1299.28" stroke="#E9E9E9" stroke-opacity="0.6" stroke-width="2"/>
<path d="M619.617 3.23145H1300.41" stroke="#E9E9E9" stroke-opacity="0.6" stroke-width="2"/>
<path d="M617.898 4.61279H1302.11" stroke="#E9E9E9" stroke-opacity="0.6" stroke-width="2"/>
<path d="M615.363 6.65771H1304.63" stroke="#E9E9E9" stroke-opacity="0.6" stroke-width="2"/>
<path d="M611.727 9.60693H1308.3" stroke="#E9E9E9" stroke-opacity="0.6" stroke-width="2"/>
<path d="M606.566 13.7632H1313.43" stroke="#E9E9E9" stroke-opacity="0.6" stroke-width="2"/>
<path d="M599.469 19.5068H1320.55" stroke="#E9E9E9" stroke-opacity="0.6" stroke-width="2"/>
<path d="M589.82 27.3003H1330.2" stroke="#E9E9E9" stroke-opacity="0.6" stroke-width="2"/>
<path d="M576.93 37.7075H1343.08" stroke="#E9E9E9" stroke-opacity="0.6" stroke-width="2"/>
<path d="M559.977 51.4062H1360.04" stroke="#E9E9E9" stroke-opacity="0.6" stroke-width="2"/>
<path d="M537.945 69.2036H1382.08" stroke="#E9E9E9" stroke-opacity="0.6" stroke-width="2"/>
<path d="M509.656 92.0527H1410.36" stroke="#E9E9E9" stroke-opacity="0.6" stroke-width="2"/>
<path d="M473.734 121.07H1446.28" stroke="#E9E9E9" stroke-opacity="0.6" stroke-width="2"/>
<path d="M428.566 157.557H1491.45" stroke="#E9E9E9" stroke-opacity="0.6" stroke-width="2"/>
<path d="M372.285 203.017H1547.73" stroke="#E9E9E9" stroke-opacity="0.6" stroke-width="2"/>
<path d="M302.762 259.183H1617.27" stroke="#E9E9E9" stroke-opacity="0.6" stroke-width="2"/>
<path d="M217.523 328.032H1702.49" stroke="#E9E9E9" stroke-opacity="0.6" stroke-width="2"/>
<path d="M113.797 411.818H1806.22" stroke="#E9E9E9" stroke-opacity="0.6" stroke-width="2"/>
<path d="M-11.5664 513.095H1931.61" stroke="#E9E9E9" stroke-opacity="0.6" stroke-width="2"/>
<path d="M-162.176 634.743H2082.19" stroke="#E9E9E9" stroke-opacity="0.6" stroke-width="2"/>
<path d="M-342 780H2262.01" stroke="#E9E9E9" stroke-opacity="0.6" stroke-width="2"/>
</svg>
