<svg width="306" height="504" viewBox="0 0 306 504" fill="none" xmlns="http://www.w3.org/2000/svg">
<path d="M73.8857 183.989L74.1736 184.946L73.8857 183.989ZM121.026 163.556L121.979 163.252L121.026 163.556ZM1.50294 1.95314C0.957342 2.03883 0.584515 2.55059 0.670206 3.09618L2.06662 11.9872C2.15231 12.5328 2.66407 12.9056 3.20967 12.8199C3.75527 12.7342 4.12809 12.2225 4.0424 11.6769L2.80114 3.77376L10.7043 2.5325C11.2499 2.44681 11.6227 1.93505 11.537 1.38945C11.4513 0.843856 10.9395 0.471028 10.3939 0.55672L1.50294 1.95314ZM305.792 501.849C288.811 503.113 263.726 496.519 243.909 472.455C224.089 448.389 209.447 406.732 213.638 337.72L211.641 337.599C207.432 406.915 222.116 449.139 242.365 473.727C262.617 498.318 288.346 505.153 305.94 503.843L305.792 501.849ZM213.638 337.72C217.854 268.292 194.992 225.943 164.9 202.785C134.865 179.671 97.7429 175.774 73.5979 183.031L74.1736 184.946C97.7013 177.875 134.156 181.649 163.68 204.37C193.147 227.047 215.825 268.698 211.641 337.599L213.638 337.72ZM73.5979 183.031C55.7988 188.38 42.6881 200.779 35.9676 207.5L37.3818 208.914C44.0738 202.222 56.885 190.142 74.1736 184.946L73.5979 183.031ZM35.9676 207.5C25.0382 218.429 17.3512 236.184 19.0799 252.701C19.9469 260.985 23.185 268.963 29.5743 275.578C35.9595 282.188 45.4338 287.378 58.6788 290.194L59.0948 288.238C46.1483 285.485 37.0628 280.452 31.0128 274.188C24.9671 267.929 21.8948 260.382 21.0691 252.493C19.4125 236.665 26.8108 219.485 37.3818 208.914L35.9676 207.5ZM58.6788 290.194C85.1532 295.823 108.989 288.843 122.168 267.825C135.294 246.892 137.641 212.336 121.979 163.252L120.073 163.86C135.667 212.727 133.136 246.57 120.474 266.763C107.865 286.871 85.0033 293.746 59.0948 288.238L58.6788 290.194ZM121.979 163.252C96.8827 84.6062 31.4242 23.389 2.24693 2.13277L1.06926 3.74928C30.0771 24.8821 95.1595 85.785 120.073 163.86L121.979 163.252Z" fill="url(#paint0_linear_1024_40)" fill-opacity="0.36"/>
<defs>
<linearGradient id="paint0_linear_1024_40" x1="-57.9996" y1="62.5987" x2="344.057" y2="464.655" gradientUnits="userSpaceOnUse">
<stop stop-color="#20282D"/>
<stop offset="1" stop-color="white"/>
</linearGradient>
</defs>
</svg>
