<svg width="107" height="126" viewBox="0 0 107 126" fill="none" xmlns="http://www.w3.org/2000/svg">
<path d="M2.02279 121.567L1.96952 124.622C1.96952 125.155 2.39572 125.599 2.92852 125.616C3.17716 125.616 3.40808 125.528 3.58568 125.368C3.78104 125.19 3.92307 124.942 3.92307 124.64L3.97635 121.78L6.81796 122.118C7.10212 122.153 7.36856 122.064 7.58168 121.887C7.75928 121.727 7.88359 121.514 7.90135 121.265C7.97239 120.732 7.58165 120.253 7.04885 120.182L4.01191 119.827L4.06518 116.772C4.06518 116.239 3.63893 115.795 3.10613 115.777C2.57333 115.777 2.12933 116.204 2.11157 116.736L2.05829 119.596L-0.783317 119.258C-1.31612 119.187 -1.81337 119.578 -1.86665 120.111C-1.93769 120.644 -1.54701 121.123 -1.01421 121.194L2.02279 121.567Z" fill="#20282D" fill-opacity="0.2"/>
<path d="M19.2855 111.302C19.5341 111.302 19.765 111.213 19.9426 111.053C20.138 110.876 20.2801 110.627 20.2801 110.325L20.3333 107.466L23.1749 107.803C23.4591 107.839 23.7255 107.75 23.9386 107.572C24.1162 107.412 24.2405 107.199 24.2583 106.951C24.3293 106.418 23.9386 105.938 23.4058 105.867L20.3688 105.512L20.4221 102.457C20.4221 101.925 19.9959 101.481 19.4631 101.463C18.9303 101.463 18.4863 101.889 18.4685 102.422L18.4152 105.281L15.5737 104.944C15.0409 104.873 14.5436 105.264 14.4903 105.796C14.4192 106.329 14.81 106.809 15.3428 106.88L18.3797 107.235L18.3264 110.29C18.3264 110.84 18.7527 111.284 19.2855 111.302Z" fill="#20282D" fill-opacity="0.2"/>
<path d="M35.6424 96.9697C35.8911 96.9697 36.1219 96.8809 36.2995 96.721C36.4949 96.5434 36.637 96.2948 36.637 95.9929L36.6903 93.1335L39.5319 93.4709C39.816 93.5065 40.0824 93.4177 40.2955 93.2401C40.4731 93.0802 40.5975 92.8671 40.6152 92.6185C40.6863 92.0857 40.2956 91.6062 39.7628 91.5351L36.7258 91.1799L36.779 88.1252C36.779 87.5924 36.3528 87.1484 35.82 87.1306C35.2872 87.1306 34.8433 87.5569 34.8255 88.0897L34.7722 90.949L31.9306 90.6116C31.3978 90.5405 30.9005 90.9313 30.8472 91.4641C30.7762 91.9969 31.1669 92.4764 31.6997 92.5474L34.7367 92.9026L34.6834 95.9573C34.6656 96.5257 35.1096 96.9697 35.6424 96.9697Z" fill="#20282D" fill-opacity="0.2"/>
<path d="M51.9994 82.6374C52.2481 82.6374 52.479 82.5486 52.6566 82.3887C52.8519 82.2111 52.994 81.9625 52.994 81.6606L53.0473 78.8012L55.8889 79.1386C56.173 79.1742 56.4394 79.0854 56.6526 78.9078C56.8302 78.7479 56.9545 78.5348 56.9723 78.2862C57.0433 77.7534 56.6526 77.2739 56.1198 77.2028L53.0828 76.8476L53.1361 73.7929C53.1361 73.2601 52.7099 72.8161 52.1771 72.7983C51.6443 72.7983 51.2003 73.2246 51.1825 73.7574L51.1292 76.6167L48.2876 76.2793C47.7548 76.2082 47.2576 76.599 47.2043 77.1318C47.1332 77.6646 47.5239 78.1441 48.0567 78.2151L51.0937 78.5703L51.0404 81.6251C51.0226 82.1934 51.4489 82.6374 51.9994 82.6374Z" fill="#20282D" fill-opacity="0.2"/>
<path d="M68.3386 68.3227C68.5872 68.3227 68.8181 68.2339 68.9957 68.074C69.1911 67.8964 69.3332 67.6478 69.3332 67.3459L69.3864 64.4865L72.228 64.8239C72.5122 64.8595 72.7786 64.7707 72.9917 64.5931C73.1693 64.4332 73.2936 64.2201 73.3114 63.9715C73.3824 63.4387 72.9917 62.9592 72.4589 62.8881L69.4219 62.5329L69.4752 59.4782C69.4752 58.9454 69.049 58.5014 68.5162 58.4836C67.9834 58.4836 67.5394 58.9099 67.5217 59.4427L67.4683 62.302L64.6268 61.9646C64.094 61.8935 63.5967 62.2843 63.5434 62.8171C63.4723 63.3499 63.8631 63.8294 64.3959 63.9004L67.4328 64.2556L67.3795 67.3104C67.3795 67.8787 67.8058 68.3227 68.3386 68.3227Z" fill="#20282D" fill-opacity="0.2"/>
<path d="M84.6955 53.9904C84.9442 53.9904 85.175 53.9016 85.3526 53.7418C85.548 53.5642 85.6901 53.3155 85.6901 53.0136L85.7434 50.1543L88.585 50.4917C88.8691 50.5272 89.1355 50.4384 89.3486 50.2608C89.5262 50.101 89.6506 49.8878 89.6683 49.6392C89.7394 49.1064 89.3487 48.6269 88.8159 48.5559L85.7789 48.2006L85.8322 45.1459C85.8322 44.6131 85.4059 44.1691 84.8731 44.1514C84.3403 44.1514 83.8964 44.5776 83.8786 45.1104L83.8253 47.9698L80.9837 47.6323C80.4509 47.5613 79.9536 47.952 79.9003 48.4848C79.8293 49.0176 80.22 49.4971 80.7528 49.5682L83.7898 49.9234L83.7365 52.9781C83.7187 53.5464 84.1627 53.9904 84.6955 53.9904Z" fill="#20282D" fill-opacity="0.2"/>
<path d="M101.053 39.676C101.301 39.676 101.532 39.5871 101.71 39.4273C101.905 39.2497 102.047 39.0011 102.047 38.6992L102.1 35.8398L104.942 36.1772C105.226 36.2128 105.493 36.124 105.706 35.9464C105.883 35.7865 106.008 35.5734 106.025 35.3247C106.096 34.7919 105.706 34.3124 105.173 34.2414L102.136 33.8862L102.189 30.8315C102.189 30.2987 101.763 29.8547 101.23 29.8369C100.697 29.8369 100.253 30.2632 100.236 30.796L100.182 33.6553L97.3407 33.3179C96.8079 33.2468 96.3107 33.6376 96.2574 34.1704C96.1863 34.7032 96.577 35.1827 97.1098 35.2537L100.147 35.6089L100.094 38.6636C100.076 39.232 100.502 39.676 101.053 39.676Z" fill="#20282D" fill-opacity="0.2"/>
<path d="M6.44505 96.6322C6.69369 96.6322 6.92456 96.5434 7.10216 96.3836C7.29752 96.206 7.43961 95.9574 7.43961 95.6554L7.49288 92.7961L10.3345 93.1335C10.6187 93.169 10.885 93.0802 11.0982 92.9026C11.2758 92.7428 11.4001 92.5297 11.4178 92.281C11.4889 91.7482 11.0982 91.2687 10.5654 91.1977L7.52838 90.8425L7.58172 87.7878C7.58172 87.255 7.15546 86.811 6.62266 86.7932C6.08986 86.7932 5.64586 87.2194 5.6281 87.7522L5.57483 90.6116L2.73322 90.2742C2.20042 90.2031 1.70311 90.5938 1.64983 91.1266C1.57879 91.6594 1.96953 92.139 2.50233 92.21L5.53927 92.5652L5.48599 95.6199C5.48599 96.1883 5.91225 96.6322 6.44505 96.6322Z" fill="#20282D" fill-opacity="0.2"/>
<path d="M22.8019 82.3176C23.0506 82.3176 23.2814 82.2288 23.459 82.0689C23.6544 81.8913 23.7965 81.6427 23.7965 81.3408L23.8498 78.4814L26.6914 78.8188C26.9755 78.8544 27.2419 78.7656 27.455 78.588C27.6326 78.4281 27.757 78.215 27.7748 77.9664C27.8458 77.4336 27.4551 76.9541 26.9223 76.883L23.8853 76.5278L23.9386 73.4731C23.9386 72.9403 23.5123 72.4963 22.9795 72.4785C22.4467 72.4785 22.0027 72.9048 21.985 73.4376L21.9317 76.2969L19.0901 75.9595C18.5573 75.8884 18.06 76.2792 18.0068 76.812C17.9357 77.3448 18.3264 77.8243 18.8592 77.8953L21.8962 78.2505L21.8429 81.3052C21.8252 81.8558 22.2514 82.2998 22.8019 82.3176Z" fill="#20282D" fill-opacity="0.2"/>
<path d="M39.1589 67.9853C39.4076 67.9853 39.6384 67.8965 39.816 67.7366C40.0114 67.559 40.1535 67.3104 40.1535 67.0085L40.2068 64.1491L43.0483 64.4865C43.3325 64.5221 43.5989 64.4333 43.812 64.2557C43.9896 64.0958 44.1139 63.8827 44.1317 63.6341C44.2027 63.1013 43.812 62.6218 43.2792 62.5507L40.2423 62.1955L40.2955 59.1408C40.2955 58.608 39.8693 58.164 39.3365 58.1462C38.8037 58.1462 38.3597 58.5725 38.3419 59.1053L38.2886 61.9646L35.447 61.6272C34.9142 61.5561 34.417 61.9469 34.3637 62.4797C34.2927 63.0125 34.6834 63.492 35.2162 63.563L38.2531 63.9182L38.1999 66.973C38.1821 67.5413 38.6084 67.9853 39.1589 67.9853Z" fill="#20282D" fill-opacity="0.2"/>
<path d="M55.4981 53.6708C55.7467 53.6708 55.9776 53.582 56.1552 53.4222C56.3506 53.2446 56.4927 52.9959 56.4927 52.694L56.5459 49.8346L59.3875 50.1721C59.6717 50.2076 59.9381 50.1188 60.1512 49.9412C60.3288 49.7814 60.4532 49.5683 60.4709 49.3196C60.542 48.7868 60.1512 48.3073 59.6184 48.2363L56.5815 47.8811L56.6348 44.8263C56.6348 44.2935 56.2085 43.8495 55.6757 43.8318C55.1429 43.8318 54.6989 44.258 54.6812 44.7908L54.6279 47.6502L51.7863 47.3127C51.2535 47.2417 50.7562 47.6324 50.7029 48.1652C50.6319 48.698 51.0226 49.1776 51.5554 49.2486L54.5923 49.6038L54.539 52.6585C54.539 53.2091 54.9653 53.6531 55.4981 53.6708Z" fill="#20282D" fill-opacity="0.2"/>
<path d="M71.855 39.3383C72.1037 39.3383 72.3346 39.2495 72.5122 39.0897C72.7076 38.9121 72.8496 38.6634 72.8496 38.3615L72.9029 35.5022L75.7445 35.8396C76.0286 35.8751 76.2951 35.7863 76.5082 35.6087C76.6858 35.4489 76.8101 35.2357 76.8279 34.9871C76.8989 34.4543 76.5082 33.9748 75.9754 33.9038L72.9384 33.5485L72.9917 30.4938C72.9917 29.961 72.5654 29.517 72.0326 29.4993C71.4998 29.4993 71.0558 29.9255 71.0381 30.4583L70.9848 33.3177L68.1432 32.9802C67.6104 32.9092 67.1131 33.2999 67.0599 33.8327C66.9888 34.3655 67.3795 34.845 67.9123 34.9161L70.9493 35.2713L70.896 38.326C70.8783 38.8943 71.3045 39.3383 71.855 39.3383Z" fill="#20282D" fill-opacity="0.2"/>
<path d="M88.212 25.006C88.4607 25.006 88.6915 24.9172 88.8691 24.7574C89.0645 24.5798 89.2066 24.3311 89.2066 24.0292L89.2599 21.1699L92.1015 21.5073C92.3856 21.5428 92.652 21.454 92.8651 21.2764C93.0427 21.1166 93.167 20.9035 93.1848 20.6548C93.2558 20.122 92.8651 19.6425 92.3323 19.5715L89.2954 19.2163L89.3486 16.1615C89.3486 15.6287 88.9224 15.1848 88.3896 15.167C87.8568 15.167 87.4128 15.5932 87.395 16.126L87.3417 18.9854L84.5002 18.6479C83.9674 18.5769 83.4701 18.9676 83.4168 19.5004C83.3458 20.0332 83.7365 20.5128 84.2693 20.5838L87.3062 20.939L87.253 23.9937C87.2352 24.562 87.6615 25.006 88.212 25.006Z" fill="#20282D" fill-opacity="0.2"/>
<path d="M9.51756 67.1327C9.7662 67.1327 9.99707 67.0439 10.1747 66.8841C10.37 66.7065 10.5121 66.4578 10.5121 66.1559L10.5654 63.2966L13.407 63.634C13.6912 63.6695 13.9576 63.5807 14.1707 63.4031C14.3483 63.2433 14.4726 63.0302 14.4903 62.7815C14.5614 62.2487 14.1706 61.7692 13.6378 61.6982L10.6009 61.343L10.6542 58.2883C10.6542 57.7555 10.2279 57.3115 9.69512 57.2937C9.16232 57.2937 8.71832 57.7199 8.70056 58.2527L8.64728 61.1121L5.80573 60.7746C5.27293 60.7036 4.77562 61.0943 4.72234 61.6271C4.6513 62.1599 5.04204 62.6394 5.57484 62.7105L8.61178 63.0657L8.5585 66.1204C8.54074 66.6887 8.967 67.1327 9.51756 67.1327Z" fill="#20282D" fill-opacity="0.2"/>
<path d="M25.8566 52.8183C26.1053 52.8183 26.3361 52.7295 26.5137 52.5697C26.7091 52.3921 26.8512 52.1434 26.8512 51.8415L26.9045 48.9821L29.7461 49.3196C30.0302 49.3551 30.2966 49.2663 30.5097 49.0887C30.6873 48.9289 30.8117 48.7157 30.8294 48.4671C30.9005 47.9343 30.5098 47.4548 29.977 47.3837L26.94 47.0286L26.9933 43.9738C26.9933 43.441 26.567 42.997 26.0342 42.9792C25.5014 42.9792 25.0574 43.4055 25.0397 43.9383L24.9864 46.7977L22.1448 46.4602C21.612 46.3892 21.1147 46.7799 21.0614 47.3127C20.9904 47.8455 21.3811 48.325 21.9139 48.3961L24.9509 48.7512L24.8976 51.806C24.8976 52.3743 25.3238 52.8183 25.8566 52.8183Z" fill="#20282D" fill-opacity="0.2"/>
<path d="M42.2137 38.486C42.4624 38.486 42.6932 38.3972 42.8708 38.2374C43.0662 38.0598 43.2083 37.8111 43.2083 37.5092L43.2616 34.6499L46.1031 34.9873C46.3873 35.0228 46.6537 34.934 46.8668 34.7564C47.0444 34.5966 47.1687 34.3834 47.1865 34.1348C47.2575 33.602 46.8668 33.1225 46.334 33.0514L43.2971 32.6963L43.3503 29.6415C43.3503 29.1087 42.9241 28.6647 42.3913 28.647C41.8585 28.647 41.4145 29.0732 41.3967 29.606L41.3434 32.4654L38.5018 32.1279C37.969 32.0569 37.4718 32.4476 37.4185 32.9804C37.3475 33.5132 37.7382 33.9927 38.271 34.0638L41.3079 34.419L41.2547 37.4737C41.2369 38.042 41.6809 38.486 42.2137 38.486Z" fill="#20282D" fill-opacity="0.2"/>
<path d="M58.5707 24.1713C58.8193 24.1713 59.0502 24.0825 59.2278 23.9227C59.4231 23.7451 59.5652 23.4964 59.5652 23.1945L59.6185 20.3351L62.4601 20.6726C62.7443 20.7081 63.0107 20.6193 63.2238 20.4417C63.4014 20.2819 63.5257 20.0687 63.5434 19.8201C63.6145 19.2873 63.2238 18.8078 62.691 18.7367L59.654 18.3816L59.7073 15.3268C59.7073 14.794 59.2811 14.35 58.7483 14.3323C58.2155 14.3323 57.7715 14.7585 57.7537 15.2913L57.7004 18.1507L54.8588 17.8132C54.326 17.7422 53.8287 18.1329 53.7754 18.6657C53.7044 19.1985 54.0951 19.678 54.6279 19.7491L57.6649 20.1043L57.6116 23.159C57.5938 23.7273 58.0201 24.1535 58.5707 24.1713Z" fill="#20282D" fill-opacity="0.2"/>
<path d="M74.9097 9.83906C75.1584 9.83906 75.3893 9.75026 75.5669 9.59042C75.7622 9.41282 75.9043 9.16417 75.9043 8.86225L75.9576 6.00289L78.7992 6.34033C79.0833 6.37585 79.3498 6.28704 79.5629 6.10944C79.7405 5.9496 79.8648 5.7365 79.8826 5.48786C79.9536 4.95506 79.5629 4.47554 79.0301 4.4045L75.9931 4.04928L76.0464 0.994556C76.0464 0.461756 75.6201 0.01776 75.0873 0C74.5545 0 74.1105 0.426255 74.0928 0.959055L74.0395 3.81842L71.1979 3.48097C70.6651 3.40993 70.1678 3.80064 70.1146 4.33344C70.0435 4.86624 70.4342 5.34577 70.967 5.41681L74.004 5.772L73.9507 8.82672C73.9507 9.39504 74.3769 9.83906 74.9097 9.83906Z" fill="#20282D" fill-opacity="0.2"/>
</svg>
