<svg width="68" height="68" viewBox="0 0 68 68" fill="none" xmlns="http://www.w3.org/2000/svg">
<path d="M23.375 24.4375H15.9375V17C15.9375 16.7182 15.8256 16.448 15.6263 16.2487C15.427 16.0494 15.1568 15.9375 14.875 15.9375C12.9837 15.9375 11.1349 16.4983 9.56236 17.5491C7.98982 18.5998 6.76417 20.0933 6.04041 21.8406C5.31664 23.5879 5.12727 25.5106 5.49625 27.3656C5.86522 29.2205 6.77596 30.9244 8.1133 32.2617C9.45064 33.599 11.1545 34.5098 13.0095 34.8788C14.8644 35.2477 16.7871 35.0584 18.5344 34.3346C20.2817 33.6108 21.7752 32.3852 22.8259 30.8126C23.8767 29.2401 24.4375 27.3913 24.4375 25.5C24.4375 25.2182 24.3256 24.948 24.1263 24.7487C23.927 24.5494 23.6568 24.4375 23.375 24.4375ZM13.8125 18.1379V25.0601L8.925 29.9476C8.14922 28.9165 7.6557 27.7008 7.49315 26.4207C7.33061 25.1406 7.50465 23.8402 7.9981 22.6478C8.49156 21.4555 9.28737 20.4124 10.307 19.6215C11.3267 18.8307 12.5349 18.3193 13.8125 18.1379ZM14.875 32.9375C13.271 32.9374 11.7106 32.4153 10.4295 31.45L15.317 26.5625H22.2392C21.9813 28.3321 21.0954 29.9499 19.7434 31.1203C18.3913 32.2908 16.6633 32.9358 14.875 32.9375Z" fill="#20282D"/>
<path d="M19.125 22.3125H27.625C27.9068 22.3125 28.177 22.2006 28.3763 22.0013C28.5756 21.802 28.6875 21.5318 28.6875 21.25C28.6844 18.7148 27.6759 16.2844 25.8833 14.4917C24.0906 12.6991 21.6602 11.6906 19.125 11.6875C18.8432 11.6875 18.573 11.7994 18.3737 11.9987C18.1744 12.198 18.0625 12.4682 18.0625 12.75V21.25C18.0625 21.5318 18.1744 21.802 18.3737 22.0013C18.573 22.2006 18.8432 22.3125 19.125 22.3125ZM20.1875 13.8879C21.7757 14.1201 23.2465 14.8586 24.3815 15.9935C25.5164 17.1285 26.2549 18.5993 26.4871 20.1875H20.1875V13.8879Z" fill="#20282D"/>
<path d="M41.4375 27.625C38.7057 27.625 36.0351 28.4351 33.7637 29.9528C31.4922 31.4706 29.7219 33.6278 28.6764 36.1517C27.631 38.6756 27.3575 41.4528 27.8904 44.1322C28.4234 46.8115 29.7389 49.2727 31.6706 51.2044C33.6023 53.1361 36.0635 54.4516 38.7428 54.9846C41.4222 55.5176 44.1994 55.244 46.7233 54.1986C49.2472 53.1532 51.4044 51.3828 52.9222 49.1113C54.4399 46.8399 55.25 44.1694 55.25 41.4375C55.2458 37.7755 53.7892 34.2647 51.1998 31.6752C48.6103 29.0858 45.0995 27.6292 41.4375 27.625ZM36.125 37.1875V31.0399C36.8042 30.6919 37.516 30.4115 38.25 30.2026V37.1875H36.125ZM48.875 39.3125V41.4375H34V39.3125H48.875ZM44.625 37.1875V30.2026C45.359 30.4115 46.0708 30.6919 46.75 31.0399V37.1875H44.625ZM42.5 29.8042V37.1875H40.375V29.8042C40.7256 29.7723 41.0784 29.75 41.4375 29.75C41.7966 29.75 42.1494 29.7723 42.5 29.8042ZM34 32.4286V37.1875H32.9375C32.6557 37.1875 32.3855 37.2994 32.1862 37.4987C31.9869 37.698 31.875 37.9682 31.875 38.25V42.5C31.875 42.7818 31.9869 43.052 32.1862 43.2513C32.3855 43.4506 32.6557 43.5625 32.9375 43.5625H49.9375C50.2193 43.5625 50.4895 43.4506 50.6888 43.2513C50.8881 43.052 51 42.7818 51 42.5V38.25C51 37.9682 50.8881 37.698 50.6888 37.4987C50.4895 37.2994 50.2193 37.1875 49.9375 37.1875H48.875V32.4286C50.7772 33.9906 52.1348 36.1158 52.7526 38.4983C53.3705 40.8808 53.2166 43.3979 52.3133 45.6875H30.5618C29.6584 43.3979 29.5045 40.8808 30.1224 38.4983C30.7402 36.1158 32.0978 33.9906 34 32.4286ZM41.4375 53.125C39.4936 53.123 37.5809 52.6361 35.8726 51.7085C34.1643 50.7808 32.7143 49.4418 31.654 47.8125H51.221C50.1607 49.4418 48.7107 50.7808 47.0024 51.7085C45.2941 52.6361 43.3814 53.123 41.4375 53.125Z" fill="#20282D"/>
<path d="M65.5254 58.7106L60.9291 54.1142C61.1415 53.7141 61.2206 53.2565 61.1546 52.8083C61.0887 52.36 60.8812 51.9446 60.5625 51.6226L57.8584 48.9186C59.1608 46.0875 59.7031 42.9659 59.4321 39.8614C59.161 36.757 58.0858 33.7767 56.3125 31.2141V4.25C56.3125 3.40462 55.9767 2.59387 55.3789 1.9961C54.7811 1.39832 53.9704 1.0625 53.125 1.0625H4.25C3.40462 1.0625 2.59387 1.39832 1.9961 1.9961C1.39832 2.59387 1.0625 3.40462 1.0625 4.25V44.625C1.0625 45.4704 1.39832 46.2811 1.9961 46.8789C2.59387 47.4767 3.40462 47.8125 4.25 47.8125H24.5586C25.4251 50.1283 26.7595 52.2406 28.4786 54.0177C30.1978 55.7948 32.2648 57.1984 34.5506 58.1411C36.8364 59.0837 39.2919 59.5451 41.764 59.4965C44.2361 59.4479 46.6716 58.8903 48.9186 57.8584L51.6226 60.5625C51.9421 60.8854 52.3578 61.0958 52.8072 61.1619C53.2566 61.228 53.7153 61.1463 54.1142 60.9291L58.7106 65.5254C59.6143 66.4291 60.84 66.9368 62.118 66.9368C63.396 66.9368 64.6217 66.4291 65.5254 65.5254C66.4291 64.6217 66.9368 63.396 66.9368 62.118C66.9368 60.84 66.4291 59.6143 65.5254 58.7106ZM4.25 3.1875H53.125C53.4068 3.1875 53.677 3.29944 53.8763 3.4987C54.0756 3.69796 54.1875 3.96821 54.1875 4.25V7.4375H3.1875V4.25C3.1875 3.96821 3.29944 3.69796 3.4987 3.4987C3.69796 3.29944 3.96821 3.1875 4.25 3.1875ZM4.25 45.6875C3.96821 45.6875 3.69796 45.5756 3.4987 45.3763C3.29944 45.177 3.1875 44.9068 3.1875 44.625V9.5625H54.1875V28.6567C52.6498 27.1287 50.8505 25.8889 48.875 24.9964V12.75C48.875 12.4682 48.7631 12.198 48.5638 11.9987C48.3645 11.7994 48.0943 11.6875 47.8125 11.6875H43.5625C43.2807 11.6875 43.0105 11.7994 42.8112 11.9987C42.6119 12.198 42.5 12.4682 42.5 12.75V23.4292C42.1462 23.4079 41.7966 23.375 41.4375 23.375C41.0784 23.375 40.7288 23.4079 40.375 23.4292V19.125C40.375 18.8432 40.2631 18.573 40.0638 18.3737C39.8645 18.1744 39.5943 18.0625 39.3125 18.0625H35.0625C34.7807 18.0625 34.5105 18.1744 34.3112 18.3737C34.1119 18.573 34 18.8432 34 19.125V24.9964C30.1574 26.7131 27.0409 29.7264 25.1957 33.5089C23.3504 37.2915 22.894 41.6024 23.9062 45.6875H4.25ZM46.75 24.1751C46.0526 23.9647 45.3429 23.7973 44.625 23.6736V13.8125H46.75V24.1751ZM38.25 23.6736C37.5321 23.7973 36.8224 23.9647 36.125 24.1751V20.1875H38.25V23.6736ZM25.5 41.4375C25.5 38.2854 26.4347 35.204 28.186 32.5831C29.9372 29.9622 32.4263 27.9194 35.3385 26.7132C38.2507 25.5069 41.4552 25.1913 44.5467 25.8062C47.6383 26.4212 50.4781 27.9391 52.707 30.168C54.9359 32.3969 56.4538 35.2367 57.0688 38.3283C57.6837 41.4198 57.3681 44.6243 56.1618 47.5365C54.9556 50.4487 52.9128 52.9378 50.2919 54.689C47.671 56.4403 44.5896 57.375 41.4375 57.375C37.2121 57.3702 33.1611 55.6896 30.1733 52.7017C27.1854 49.7139 25.5048 45.6629 25.5 41.4375ZM50.8746 56.8097C53.2891 55.3217 55.3217 53.2891 56.8097 50.8746L59.0601 53.125L53.125 59.0601L50.8746 56.8097ZM62.118 64.8125C61.764 64.8134 61.4134 64.744 61.0864 64.6085C60.7594 64.473 60.4625 64.274 60.2129 64.0231L55.6899 59.5L59.5 55.6899L64.0231 60.2129C64.3998 60.5898 64.6563 61.0698 64.7603 61.5925C64.8642 62.1151 64.8108 62.6568 64.6069 63.1491C64.403 63.6414 64.0578 64.0622 63.6147 64.3582C63.1717 64.6543 62.6509 64.8124 62.118 64.8125Z" fill="#20282D"/>
<path d="M19.125 37.1875H6.375C6.09321 37.1875 5.82296 37.2994 5.6237 37.4987C5.42444 37.698 5.3125 37.9682 5.3125 38.25V42.5C5.3125 42.7818 5.42444 43.052 5.6237 43.2513C5.82296 43.4506 6.09321 43.5625 6.375 43.5625H19.125C19.4068 43.5625 19.677 43.4506 19.8763 43.2513C20.0756 43.052 20.1875 42.7818 20.1875 42.5V38.25C20.1875 37.9682 20.0756 37.698 19.8763 37.4987C19.677 37.2994 19.4068 37.1875 19.125 37.1875ZM18.0625 41.4375H7.4375V39.3125H18.0625V41.4375Z" fill="#20282D"/>
</svg>
