<svg width="84" height="84" viewBox="0 0 84 84" fill="none" xmlns="http://www.w3.org/2000/svg">
<path d="M42 0L78.3731 21V63L42 84L5.62693 63V21L42 0Z" fill="#20282D"/>
<path d="M54.2097 26.06C52.1631 26.06 50.362 27.3541 49.6919 29.254H45.0133C45.7643 28.5401 46.2365 27.5271 46.2365 26.39C46.237 26.0179 46.0922 25.6677 45.8287 25.4042C45.4146 24.9895 44.7499 24.8787 44.2197 25.1428L42.9796 25.7635C42.591 25.9573 42.1562 26.06 41.7213 26.06H39.5348C38.9637 26.06 38.3904 26.1941 37.8779 26.4486L35.5343 27.6123L28.6613 25.3216V39.5743L35.4769 37.3023L36.5275 38.0907C37.1678 38.5714 37.962 38.836 38.763 38.836H44.6179C45.4982 38.836 46.2146 38.1195 46.2146 37.239C46.2146 37.0287 46.1715 36.8291 46.0975 36.6449C46.7762 36.4607 47.2791 35.8459 47.2791 35.1097C47.2791 34.6992 47.1189 34.3282 46.864 34.045C47.1195 33.7618 47.2791 33.3908 47.2791 32.9803C47.2791 32.7929 47.2408 32.6151 47.1812 32.448H49.6919C50.1033 33.6154 50.9437 34.5518 52.0045 35.1022L49.7132 41.0606C49.447 41.0005 49.1713 40.9653 48.8871 40.9653C47.2978 40.9653 45.941 41.9682 45.4072 43.3725L41.9635 42.607C41.9635 42.5916 41.9677 42.5778 41.9677 42.5623C41.9677 41.0947 40.7739 39.9007 39.3065 39.9007C37.839 39.9007 36.6452 41.0947 36.6452 42.5623C36.6452 42.6704 36.6643 42.7731 36.6771 42.878L33.0519 44.0864C32.4382 42.869 31.1794 42.03 29.7258 42.03C27.6718 42.03 26 43.7021 26 45.7563C26 47.8106 27.6718 49.4827 29.7258 49.4827C31.7798 49.4827 33.4516 47.8106 33.4516 45.7563C33.4516 45.5306 33.4282 45.3108 33.3893 45.0957L37.0124 43.8878C37.4739 44.6826 38.3239 45.224 39.3065 45.224C40.3869 45.224 41.3152 44.574 41.7314 43.6467L45.1757 44.4122C45.1687 44.5048 45.1613 44.5974 45.1613 44.6917C45.1613 46.7459 46.8331 48.418 48.8871 48.418C50.9411 48.418 52.6129 46.7459 52.6129 44.6917C52.6129 43.298 51.8427 42.0827 50.7069 41.4434L52.9977 35.486C53.3868 35.5877 53.7929 35.642 54.2097 35.642C56.8513 35.642 59 33.4924 59 30.851C59 28.2096 56.8513 26.06 54.2097 26.06ZM29.7258 48.418C28.2584 48.418 27.0645 47.224 27.0645 45.7563C27.0645 44.2887 28.2584 43.0947 29.7258 43.0947C31.1932 43.0947 32.3871 44.2887 32.3871 45.7563C32.3871 47.224 31.1932 48.418 29.7258 48.418ZM39.3065 44.1593C38.4261 44.1593 37.7097 43.4428 37.7097 42.5623C37.7097 41.6818 38.4261 40.9653 39.3065 40.9653C40.1868 40.9653 40.9032 41.6818 40.9032 42.5623C40.9032 43.4428 40.1868 44.1593 39.3065 44.1593ZM51.5484 44.6917C51.5484 46.1593 50.3545 47.3533 48.8871 47.3533C47.4197 47.3533 46.2258 46.1593 46.2258 44.6917C46.2258 43.224 47.4197 42.03 48.8871 42.03C50.3545 42.03 51.5484 43.224 51.5484 44.6917ZM35.0484 36.3228L29.7258 38.0976V26.7983L35.0484 28.5726V36.3228ZM46.2146 32.9803C46.2146 33.2736 45.9762 33.5127 45.6824 33.5127H43.0323V34.5773H45.6824C45.9762 34.5773 46.2146 34.8163 46.2146 35.1097C46.2146 35.403 45.9762 35.642 45.6824 35.642H43.0323V36.7067H44.6179C44.9117 36.7067 45.1501 36.9457 45.1501 37.239C45.1501 37.5323 44.9117 37.7713 44.6179 37.7713H38.763C38.1908 37.7713 37.6235 37.5823 37.1657 37.239L36.1129 36.449V28.5135L38.3505 27.4025C38.7172 27.221 39.1265 27.1247 39.5348 27.1247H41.7213C42.3206 27.1247 42.92 26.9831 43.4559 26.7153L44.695 26.0951C44.8238 26.0323 44.9787 26.0584 45.0761 26.1563C45.1384 26.2186 45.1725 26.3006 45.1725 26.4401C45.1725 27.9918 43.91 29.254 42.3584 29.254H40.3816V30.3187H52.0695C52.3633 30.3187 52.6017 30.5577 52.6017 30.851C52.6017 31.1443 52.3633 31.3833 52.0695 31.3833H43.0323V32.448H45.6824C45.9762 32.448 46.2146 32.687 46.2146 32.9803ZM53.1425 29.6761C53.4326 29.4137 53.8073 29.254 54.2097 29.254C55.09 29.254 55.8065 29.9705 55.8065 30.851C55.8065 31.7315 55.09 32.448 54.2097 32.448C53.8068 32.448 53.432 32.2883 53.1425 32.0259C53.4624 31.7336 53.6662 31.3173 53.6662 30.851C53.6662 30.3847 53.4624 29.9684 53.1425 29.6761ZM54.2097 34.5773C52.7502 34.5773 51.4552 33.7277 50.8479 32.448H52.0695C52.0732 32.448 52.0764 32.4469 52.0801 32.4469C52.5788 33.1118 53.3655 33.5127 54.2097 33.5127C55.6771 33.5127 56.871 32.3186 56.871 30.851C56.871 29.3833 55.6771 28.1893 54.2097 28.1893C53.3655 28.1893 52.5794 28.5902 52.0806 29.2551C52.0769 29.2551 52.0732 29.254 52.0695 29.254H50.8479C51.4552 27.9743 52.7502 27.1247 54.2097 27.1247C56.2637 27.1247 57.9355 28.7962 57.9355 30.851C57.9355 32.9058 56.2637 34.5773 54.2097 34.5773Z" fill="white"/>
<path d="M29.7258 44.1593C28.8455 44.1593 28.129 44.8759 28.129 45.7563C28.129 46.6368 28.8455 47.3533 29.7258 47.3533C30.6062 47.3533 31.3226 46.6368 31.3226 45.7563C31.3226 44.8759 30.6062 44.1593 29.7258 44.1593ZM29.7258 46.2887C29.432 46.2887 29.1935 46.0502 29.1935 45.7563C29.1935 45.4625 29.432 45.224 29.7258 45.224C30.0196 45.224 30.2581 45.4625 30.2581 45.7563C30.2581 46.0502 30.0196 46.2887 29.7258 46.2887Z" fill="white"/>
<path d="M47.2903 44.6917C47.2903 45.5721 48.0067 46.2887 48.8871 46.2887C49.7675 46.2887 50.4839 45.5721 50.4839 44.6917C50.4839 43.8112 49.7675 43.0947 48.8871 43.0947C48.0067 43.0947 47.2903 43.8112 47.2903 44.6917ZM49.4194 44.6917C49.4194 44.9855 49.1809 45.224 48.8871 45.224C48.5933 45.224 48.3548 44.9855 48.3548 44.6917C48.3548 44.3978 48.5933 44.1593 48.8871 44.1593C49.1809 44.1593 49.4194 44.3978 49.4194 44.6917Z" fill="white"/>
<path d="M53.1452 56.9353H51.0161V49.4827H46.7581V56.9353H44.629V46.2887H40.371V56.9353H38.2419V46.2887H33.9839V56.9353H31.8548V50.5473H27.5968V58H57.4032V36.7067H53.1452V56.9353ZM30.7903 56.9353H28.6613V51.612H30.7903V56.9353ZM47.8226 50.5473H49.9516V56.9353H47.8226V50.5473ZM41.4355 47.3533H43.5645V56.9353H41.4355V47.3533ZM35.0484 47.3533H37.1774V56.9353H35.0484V47.3533ZM54.2097 37.7713H56.3387V56.9353H54.2097V37.7713Z" fill="white"/>
</svg>
