<svg width="84" height="84" viewBox="0 0 84 84" fill="none" xmlns="http://www.w3.org/2000/svg">
<path d="M42 0L78.3731 21V63L42 84L5.62693 63V21L42 0Z" fill="#20282D"/>
<path d="M41.9049 35.9262C41.7468 35.6818 41.4357 35.5967 41.1801 35.7279L37.7801 37.4779L38.2873 38.5215L41.2396 37.0019L42.0958 38.3237C42.2035 38.4912 42.3837 38.5833 42.5673 38.5833C42.6625 38.5833 42.7594 38.5588 42.8478 38.5063L45.9951 36.6548L46.6139 37.7165C46.717 37.8932 46.9017 38 47.1 38C47.1148 38 47.1301 37.9994 47.1454 37.9982C47.3601 37.9807 47.546 37.8396 47.6265 37.6337L48.7598 34.717C48.8295 34.5373 48.808 34.3337 48.7026 34.1733C48.5972 34.0129 48.4215 33.9167 48.2334 33.9167H45.4001C45.1961 33.9167 45.0079 34.0298 44.9071 34.2124C44.8062 34.395 44.809 34.6196 44.9144 34.7998L45.4125 35.6538L42.7452 37.2224L41.9049 35.9262ZM47.3964 35.0833L46.9981 36.1082L46.4014 35.0833H47.3964Z" fill="white"/>
<path d="M58.4333 36.8333H56.4205C56.3401 36.4588 56.2443 36.0896 56.1344 35.7273L57.8757 34.6925C58.0055 34.6149 58.1007 34.4877 58.1398 34.3384C58.1789 34.1891 58.1585 34.0298 58.0831 33.8957L55.8165 29.8543C55.6601 29.5749 55.3121 29.4792 55.0424 29.6408L53.2977 30.678C53.0478 30.398 52.7854 30.1279 52.5123 29.8701L53.5198 28.0734C53.6762 27.794 53.5833 27.4376 53.3124 27.2766L49.3865 24.9433C49.2562 24.8657 49.1009 24.8447 48.9564 24.8849C48.8114 24.9246 48.6873 25.0226 48.6125 25.1567L47.6072 26.9493C47.2559 26.8362 46.8972 26.7382 46.5334 26.6553V24.5833C46.5334 24.2613 46.2801 24 45.9667 24H41.4334C41.12 24 40.8667 24.2613 40.8667 24.5833V26.6553C40.5029 26.7382 40.1442 26.8368 39.7923 26.9499L38.7871 25.1567C38.7117 25.0232 38.5876 24.9252 38.4431 24.8849C38.2981 24.8441 38.1434 24.8657 38.013 24.9433L34.0872 27.2766C33.8157 27.4376 33.7228 27.7946 33.8798 28.0734L34.8873 29.8701C34.6147 30.1279 34.3524 30.398 34.1019 30.678L32.3571 29.6408C32.0863 29.4792 31.7395 29.5749 31.5831 29.8543L29.3164 33.8957C29.2411 34.0293 29.2212 34.1885 29.2598 34.3384C29.2983 34.4883 29.3935 34.6155 29.5238 34.6925L31.2652 35.7273C31.1552 36.089 31.0595 36.4588 30.979 36.8333H28.9668C28.6534 36.8333 28.4001 37.0947 28.4001 37.4167V41.5H29.5335V38H31.4425C31.7157 38 31.9503 37.7987 31.9996 37.5222C32.114 36.8829 32.2767 36.2547 32.4835 35.6556C32.5747 35.3902 32.4699 35.0962 32.233 34.955L30.5818 33.9732L32.2818 30.9428L33.9364 31.9263C34.1739 32.0675 34.4731 32.0133 34.651 31.7997C35.0556 31.3121 35.5016 30.8524 35.9781 30.4336C36.185 30.251 36.2365 29.9424 36.1005 29.6986L35.1451 27.9952L38.089 26.2452L39.0426 27.9451C39.1786 28.1883 39.4648 28.2974 39.7232 28.2029C40.3052 27.99 40.9155 27.8226 41.536 27.7053C41.8046 27.6552 42.0001 27.4137 42.0001 27.1325V25.1667H45.4001V27.1325C45.4001 27.4137 45.5956 27.6552 45.8642 27.7059C46.4852 27.8232 47.0949 27.9906 47.6769 28.2035C47.9359 28.2974 48.2209 28.1889 48.3575 27.9457L49.3112 26.2458L52.255 27.9958L51.2996 29.6992C51.1636 29.9424 51.2152 30.2516 51.422 30.4342C51.8986 30.853 52.3445 31.3127 52.7491 31.8003C52.9259 32.0138 53.2263 32.0681 53.4637 31.9269L55.1183 30.9434L56.8183 33.9738L55.1671 34.9556C54.9302 35.0962 54.8248 35.3907 54.9166 35.6562C55.1229 36.2552 55.2855 36.8835 55.4005 37.5228C55.4493 37.7987 55.6839 38 55.9576 38H57.8667V41.5H55.9576C55.6844 41.5 55.4498 41.7013 55.4005 41.9777C55.2861 42.6171 55.1234 43.2453 54.9166 43.8444C54.8254 44.1098 54.9302 44.4038 55.1671 44.545L56.8183 45.5267L55.1183 48.5572L53.4637 47.5737C53.2263 47.4325 52.9265 47.4867 52.7491 47.7003C52.3445 48.1879 51.8986 48.6476 51.422 49.0664C51.2152 49.249 51.1636 49.5576 51.2996 49.8014L52.255 51.5047L49.3112 53.2547L48.3575 51.5549C48.2209 51.3111 47.9347 51.202 47.6769 51.2971C47.0949 51.51 46.4847 51.6774 45.8642 51.7947C45.5956 51.8448 45.4001 52.0863 45.4001 52.3675V54.3333H43.1334V55.5H45.9667C46.2801 55.5 46.5334 55.2387 46.5334 54.9167V52.8447C46.8972 52.7618 47.2559 52.6632 47.6078 52.5501L48.613 54.3427C48.6884 54.4762 48.8125 54.5742 48.957 54.6145C49.1015 54.6542 49.2562 54.6337 49.3871 54.5562L53.313 52.2228C53.5844 52.0618 53.6773 51.7048 53.5204 51.426L52.5128 49.6293C52.7854 49.3715 53.0478 49.1014 53.2982 48.8214L55.043 49.8586C55.3133 50.019 55.6606 49.9239 55.817 49.6451L58.0837 45.6037C58.1591 45.4702 58.1789 45.3109 58.1404 45.161C58.1018 45.0111 58.0066 44.8839 57.8763 44.8069L56.1349 43.7721C56.2449 43.4104 56.3406 43.0406 56.4211 42.6661H58.4333C58.7467 42.6661 59 42.4047 59 42.0828V37.4161C59 37.0947 58.7467 36.8333 58.4333 36.8333Z" fill="white"/>
<path d="M53.3334 39.75C53.3334 34.2818 49.012 29.8333 43.7001 29.8333C39.0761 29.8333 35.0958 33.2225 34.2362 37.8915L35.3497 38.1085C36.1085 33.9896 39.6201 31 43.7001 31C48.3869 31 52.2 34.9253 52.2 39.75C52.2 43.95 49.2959 47.5649 45.2941 48.3466L45.5055 49.4928C50.041 48.6067 53.3334 44.5094 53.3334 39.75Z" fill="white"/>
<path d="M27.8335 47.9167C27.8335 48.8716 27.9887 49.8008 28.2726 50.6817L26.3681 52.6423C26.2615 52.7519 26.202 52.9001 26.202 53.0547C26.202 53.2092 26.2615 53.358 26.3681 53.4671L26.7687 53.8795L25.1662 55.5292C24.9446 55.7572 24.9446 56.1259 25.1662 56.354L27.57 58.8291C27.6805 58.9428 27.8255 59 27.9706 59C28.1157 59 28.2607 58.9428 28.3712 58.8291L29.9743 57.1794L30.375 57.5918C30.4815 57.7015 30.6249 57.7627 30.7756 57.7627C30.9263 57.7627 31.0702 57.7015 31.1762 57.5918L32.8337 55.8856C33.92 56.3919 35.1049 56.6667 36.3334 56.6667C38.6041 56.6667 40.7381 55.7561 42.3435 54.1035C43.9488 52.4509 44.8334 50.2541 44.8334 47.9167C44.8334 45.5792 43.9488 43.3824 42.3435 41.7298C40.7381 40.0772 38.6041 39.1667 36.3334 39.1667C34.0628 39.1667 31.9287 40.0772 30.3234 41.7298C28.718 43.3824 27.8335 45.5792 27.8335 47.9167ZM27.9706 57.5918L26.3681 55.9416L27.57 54.7037L29.1731 56.354L27.9706 57.5918ZM30.7756 56.3546L27.57 53.0547L28.743 51.8472C29.1459 52.6697 29.6717 53.4332 30.3228 54.1035C30.7728 54.5667 31.268 54.9645 31.7922 55.3075L30.7756 56.3546ZM36.3334 40.3333C38.3015 40.3333 40.151 41.1226 41.5422 42.5547C42.9334 43.9867 43.7001 45.8913 43.7001 47.9167C43.7001 49.942 42.9334 51.8466 41.5422 53.2787C40.151 54.7108 38.3015 55.5 36.3334 55.5C34.3654 55.5 32.5158 54.7108 31.1246 53.2787C29.7335 51.8466 28.9668 49.942 28.9668 47.9167C28.9668 45.8913 29.7335 43.9867 31.1246 42.5547C32.5158 41.1226 34.3654 40.3333 36.3334 40.3333Z" fill="white"/>
<path d="M36.3334 54.3333C39.7702 54.3333 42.5667 51.4546 42.5667 47.9167C42.5667 44.3787 39.7702 41.5 36.3334 41.5C32.8966 41.5 30.1001 44.3787 30.1001 47.9167C30.1001 51.4546 32.8966 54.3333 36.3334 54.3333ZM36.3334 42.6667C39.1458 42.6667 41.4334 45.0222 41.4334 47.9167C41.4334 50.8112 39.1458 53.1667 36.3334 53.1667C33.5211 53.1667 31.2334 50.8112 31.2334 47.9167C31.2334 45.0222 33.5211 42.6667 36.3334 42.6667Z" fill="white"/>
<path d="M36.3334 45C36.6491 45 36.9539 45.0653 37.2401 45.1943L37.6934 44.125C37.2639 43.9313 36.806 43.8333 36.3334 43.8333C35.2539 43.8333 34.2628 44.3437 33.6134 45.2327L34.5201 45.9333C34.9525 45.3401 35.6138 45 36.3334 45Z" fill="white"/>
<path d="M47.6667 38.5833H48.8V43.8333H47.6667V38.5833Z" fill="white"/>
<path d="M45.4001 39.75H46.5334V43.8333H45.4001V39.75Z" fill="white"/>
</svg>
